<?xml version="1.0" encoding="iso-8859-1"?>
<!-- Uploaded to: SVG Repo, www.svgrepo.com, Generator: SVG Repo Mixer Tools -->
<svg height="800px" width="800px" version="1.1" id="Layer_1" xmlns="http://www.w3.org/2000/svg" xmlns:xlink="http://www.w3.org/1999/xlink" 
	 viewBox="0 0 512.001 512.001" xml:space="preserve">
<polyline style="fill:#B17E15;" points="271.675,504.161 240.327,504.161 240.327,446.019 271.675,446.019 271.675,504.161 "/>
<path id="SVGCleanerId_0" style="fill:#C8E5FA;" d="M181.058,181.914c-20.108-21.832-42.408-36.197-66.279-42.695
	c-21.505-5.856-43.184-4.888-62.701,2.795C20.262,154.541-0.18,182.618,0.001,213.547c0.104,17.88,7.185,35.349,20.476,50.514
	c10.824,12.352,25.56,23.057,43.94,31.942c-8.25,20.6-3.948,44.52,12.739,63.265c12.005,13.485,30.473,23.431,50.868,23.431
	c12.691,0,26.132-3.854,39.217-13.105L181.058,181.914z"/>
<path id="SVGCleanerId_1" style="fill:#211915;" d="M170.049,81.868c-20.41,0-37.015-16.604-37.015-37.014
	s16.605-37.014,37.015-37.014s37.014,16.604,37.014,37.014S190.46,81.868,170.049,81.868z M170.049,39.186
	c-3.125,0-5.669,2.543-5.669,5.668s2.543,5.668,5.669,5.668c3.124,0,5.667-2.543,5.667-5.668S173.174,39.186,170.049,39.186z"/>
<path id="SVGCleanerId_2" style="fill:#211915;" d="M232.683,124.717h-31.347c0-7.176-7.931-37.932-25.441-53.645l20.934-23.33
	C221.856,70.199,232.683,109.583,232.683,124.717z"/>
<path id="SVGCleanerId_3" style="fill:#211915;" d="M341.953,81.868c-20.41,0-37.014-16.604-37.014-37.014
	s16.604-37.014,37.014-37.014c20.41,0,37.015,16.604,37.015,37.014S362.363,81.868,341.953,81.868z M341.953,39.186
	c-3.124,0-5.668,2.543-5.668,5.668s2.543,5.668,5.668,5.668c3.125,0,5.669-2.543,5.669-5.668S345.078,39.186,341.953,39.186z"/>
<path id="SVGCleanerId_4" style="fill:#211915;" d="M310.666,124.717H279.32c0-15.134,10.826-54.518,35.854-76.975l20.934,23.33
	C318.596,86.786,310.666,117.541,310.666,124.717z"/>
<path id="SVGCleanerId_5" style="fill:#211915;" d="M256.001,304.408c-56.323,0-102.145-45.823-102.145-102.145
	c0-56.321,45.823-102.144,102.145-102.144c56.323,0,102.144,45.823,102.144,102.144
	C358.144,258.585,312.324,304.408,256.001,304.408"/>
<path id="SVGCleanerId_6" style="fill:#FFAB00;" d="M369.892,347.802c0,62.899-50.991,113.889-113.892,113.889
	S142.11,410.7,142.11,347.802c0-62.901,50.991-113.892,113.891-113.892S369.892,284.901,369.892,347.802"/>
<path id="SVGCleanerId_7" style="fill:#211915;" d="M358.786,396.911h-205.57c5.595,11.69,13.124,22.277,22.176,31.347h161.216
	C345.661,419.188,353.191,408.601,358.786,396.911"/>
<path id="SVGCleanerId_8" style="fill:#211915;" d="M368.812,332.127H143.188c-0.705,5.125-1.078,10.356-1.078,15.674
	s0.373,10.549,1.078,15.672h225.623c0.706-5.123,1.08-10.354,1.08-15.672S369.519,337.252,368.812,332.127"/>
<path id="SVGCleanerId_9" style="fill:#211915;" d="M175.392,267.347c-9.051,9.068-16.58,19.657-22.176,31.347h205.569
	c-5.595-11.69-13.125-22.279-22.177-31.347L175.392,267.347"/>
<polyline style="fill:#B17E15;" points="271.675,504.161 240.327,504.161 240.327,446.019 271.675,446.019 271.675,504.161 "/>
<g>
	<path id="SVGCleanerId_0_1_" style="fill:#C8E5FA;" d="M181.058,181.914c-20.108-21.832-42.408-36.197-66.279-42.695
		c-21.505-5.856-43.184-4.888-62.701,2.795C20.262,154.541-0.18,182.618,0.001,213.547c0.104,17.88,7.185,35.349,20.476,50.514
		c10.824,12.352,25.56,23.057,43.94,31.942c-8.25,20.6-3.948,44.52,12.739,63.265c12.005,13.485,30.473,23.431,50.868,23.431
		c12.691,0,26.132-3.854,39.217-13.105L181.058,181.914z"/>
</g>
<path style="fill:#94AABB;" d="M330.944,181.914c20.108-21.832,42.408-36.197,66.279-42.695c21.505-5.856,43.185-4.888,62.701,2.795
	c31.816,12.527,52.257,40.605,52.077,71.534c-0.105,17.88-7.185,35.349-20.476,50.514c-10.824,12.352-25.56,23.057-43.94,31.942
	c8.25,20.6,3.948,44.52-12.738,63.265c-12.005,13.485-30.473,23.431-50.868,23.431c-12.691,0-26.132-3.854-39.217-13.105
	L330.944,181.914z"/>
<g>
	<path id="SVGCleanerId_1_1_" style="fill:#211915;" d="M170.049,81.868c-20.41,0-37.015-16.604-37.015-37.014
		s16.605-37.014,37.015-37.014s37.014,16.604,37.014,37.014S190.46,81.868,170.049,81.868z M170.049,39.186
		c-3.125,0-5.669,2.543-5.669,5.668s2.543,5.668,5.669,5.668c3.124,0,5.667-2.543,5.667-5.668S173.174,39.186,170.049,39.186z"/>
</g>
<g>
	<path id="SVGCleanerId_2_1_" style="fill:#211915;" d="M232.683,124.717h-31.347c0-7.176-7.931-37.932-25.441-53.645l20.934-23.33
		C221.856,70.199,232.683,109.583,232.683,124.717z"/>
</g>
<g>
	<path id="SVGCleanerId_3_1_" style="fill:#211915;" d="M341.953,81.868c-20.41,0-37.014-16.604-37.014-37.014
		s16.604-37.014,37.014-37.014c20.41,0,37.015,16.604,37.015,37.014S362.363,81.868,341.953,81.868z M341.953,39.186
		c-3.124,0-5.668,2.543-5.668,5.668s2.543,5.668,5.668,5.668c3.125,0,5.669-2.543,5.669-5.668S345.078,39.186,341.953,39.186z"/>
</g>
<g>
	<path id="SVGCleanerId_4_1_" style="fill:#211915;" d="M310.666,124.717H279.32c0-15.134,10.826-54.518,35.854-76.975l20.934,23.33
		C318.596,86.786,310.666,117.541,310.666,124.717z"/>
</g>
<g>
	<path id="SVGCleanerId_5_1_" style="fill:#211915;" d="M256.001,304.408c-56.323,0-102.145-45.823-102.145-102.145
		c0-56.321,45.823-102.144,102.145-102.144c56.323,0,102.144,45.823,102.144,102.144
		C358.144,258.585,312.324,304.408,256.001,304.408"/>
</g>
<g>
	<path id="SVGCleanerId_6_1_" style="fill:#FFAB00;" d="M369.892,347.802c0,62.899-50.991,113.889-113.892,113.889
		S142.11,410.7,142.11,347.802c0-62.901,50.991-113.892,113.891-113.892S369.892,284.901,369.892,347.802"/>
</g>
<path style="fill:#BD7F00;" d="M369.892,347.802c0,62.899-50.991,113.889-113.892,113.889c0-72.961,0-169.603,0-227.781
	C318.901,233.911,369.892,284.901,369.892,347.802"/>
<g>
	<path id="SVGCleanerId_7_1_" style="fill:#211915;" d="M358.786,396.911h-205.57c5.595,11.69,13.124,22.277,22.176,31.347h161.216
		C345.661,419.188,353.191,408.601,358.786,396.911"/>
</g>
<g>
	<path id="SVGCleanerId_8_1_" style="fill:#211915;" d="M368.812,332.127H143.188c-0.705,5.125-1.078,10.356-1.078,15.674
		s0.373,10.549,1.078,15.672h225.623c0.706-5.123,1.08-10.354,1.08-15.672S369.519,337.252,368.812,332.127"/>
</g>
<g>
	<path id="SVGCleanerId_9_1_" style="fill:#211915;" d="M175.392,267.347c-9.051,9.068-16.58,19.657-22.176,31.347h205.569
		c-5.595-11.69-13.125-22.279-22.177-31.347L175.392,267.347"/>
</g>
<path style="fill:#835E10;" d="M271.675,460.622c-5.123,0.705-10.357,1.07-15.674,1.07c0,25.588,0,42.47,0,42.47h15.674V460.622"/>
<g>
	<path style="fill:#191310;" d="M358.786,396.911H256.001c0,10.831,0,21.378,0,31.347H336.6
		c9.053-9.069,16.585-19.656,22.181-31.347"/>
	<path style="fill:#191310;" d="M368.812,332.127H256.001c0,10.318,0,20.852,0,31.347h112.811c0.661-4.798,1.031-9.69,1.075-14.662
		c0-0.039,0-0.077,0.001-0.115c0-0.084,0.001-0.167,0.001-0.251c0-0.074,0.001-0.147,0.001-0.222c0-0.034,0-0.069,0-0.103
		c0-0.108,0-0.213,0-0.32l0,0l0,0c0-0.108,0-0.213,0-0.32c0-0.034,0-0.069,0-0.104c0-0.074,0-0.147-0.001-0.222
		c0-0.084-0.001-0.167-0.002-0.251c0-0.039,0-0.076-0.001-0.115C369.843,341.82,369.474,336.927,368.812,332.127"/>
	<path style="fill:#191310;" d="M336.601,267.347h-80.6c0,9.604,0,20.175,0,31.347h102.784c-5.455-11.399-12.75-21.75-21.503-30.666
		l0.001,0.008C337.056,267.805,336.83,267.577,336.601,267.347"/>
</g>
</svg>